<svg width="100" height="100" viewBox="0 0 100 100" fill="none" xmlns="http://www.w3.org/2000/svg">
<path d="M2.8999 61.9H47.6999L47.9999 6L2.8999 61.9Z" stroke="white" stroke-miterlimit="10"/>
<path d="M37.1999 33.2L42.8999 18.1C32.1999 31.3 21.5999 44.5 10.8999 57.7H42.7999L45.6999 50.2L38.8999 53.1L42.8999 41.6L36.2999 45.9L42.2999 30.8L37.1999 33.2Z" stroke="white" stroke-miterlimit="10"/>
<path d="M50 6.30005L83.9 48.5L68 47.2001L76.2 68.5H67.5L60.8 49.8L50 61.9001V6.30005Z" stroke="white" stroke-miterlimit="10"/>
<path d="M60.3001 53.8L63.3001 61.9001H52.6001L60.3001 53.8Z" stroke="white" stroke-miterlimit="10"/>
<path d="M70.7998 49.6L75.3998 61.9H94.4998L85.3998 50.5L70.7998 49.6Z" stroke="white" stroke-miterlimit="10"/>
<path d="M8.546 85.44C7.226 85.44 6.06 85.1687 5.048 84.626C4.036 84.0687 3.25133 83.2987 2.694 82.316C2.15133 81.3333 1.88 80.226 1.88 78.994C1.88 77.498 2.26133 76.0607 3.024 74.682C3.78667 73.3033 4.83533 72.1887 6.17 71.338C7.50467 70.4727 8.97867 70.04 10.592 70.04C11.8973 70.04 13.1 70.26 14.2 70.7C15.3147 71.14 15.872 71.9247 15.872 73.054C15.872 73.538 15.7987 74.1467 15.652 74.88H14.992C14.948 73.5453 14.6033 72.57 13.958 71.954C13.3273 71.338 12.3667 71.03 11.076 71.03C9.68267 71.03 8.51667 71.492 7.578 72.416C6.63933 73.3253 5.95 74.4767 5.51 75.87C5.07 77.2487 4.85 78.6347 4.85 80.028C4.85 83.0493 6.13333 84.56 8.7 84.56C9.87333 84.56 10.9 84.3693 11.78 83.988L12.462 80.072C12.6087 79.2947 13.0193 78.6567 13.694 78.158C14.3687 77.6447 15.542 77.388 17.214 77.388L17.104 77.938C16.1653 77.938 15.5713 78.6347 15.322 80.028L14.64 83.966C13.716 84.4793 12.7553 84.8533 11.758 85.088C10.7607 85.3227 9.69 85.44 8.546 85.44ZM18.2123 85C19.0336 80.336 19.5983 77.102 19.9062 75.298C20.2143 73.494 20.3683 72.5113 20.3683 72.35C20.3683 71.9393 20.2729 71.6387 20.0823 71.448C19.8916 71.2427 19.5689 71.14 19.1143 71.14H18.8943L19.0043 70.48H28.7063C29.7769 70.48 30.3123 70.9053 30.3123 71.756C30.3123 71.888 30.1876 72.6727 29.9383 74.11H29.2782C29.3223 73.846 29.3443 73.604 29.3443 73.384C29.3443 72.108 28.5596 71.47 26.9903 71.47H23.4483L22.4803 76.97H28.2003L28.0243 77.96H22.3043L21.2263 84.01H24.9883C25.8243 84.01 26.5503 83.8267 27.1663 83.46C27.7969 83.0787 28.3836 82.426 28.9263 81.502L29.4763 81.722L28.5303 83.46C28.2369 84.0027 27.9363 84.3987 27.6283 84.648C27.3349 84.8827 26.9096 85 26.3523 85H18.2123ZM37.3206 85.44C36.074 85.44 34.996 85.1833 34.0866 84.67C33.1773 84.1567 32.4806 83.4453 31.9966 82.536C31.5126 81.612 31.2706 80.556 31.2706 79.368C31.2706 77.828 31.6446 76.3393 32.3926 74.902C33.1406 73.4647 34.182 72.2987 35.5166 71.404C36.866 70.4947 38.3693 70.04 40.0266 70.04C41.2733 70.04 42.3513 70.2967 43.2606 70.81C44.17 71.3233 44.8666 72.042 45.3506 72.966C45.8346 73.8753 46.0766 74.924 46.0766 76.112C46.0766 77.652 45.7026 79.1407 44.9546 80.578C44.2066 82.0153 43.158 83.1887 41.8086 84.098C40.474 84.9927 38.978 85.44 37.3206 85.44ZM37.4966 84.45C38.7726 84.45 39.8286 83.9587 40.6646 82.976C41.5153 81.9933 42.1313 80.8053 42.5126 79.412C42.9086 78.004 43.1066 76.6547 43.1066 75.364C43.1066 73.9707 42.828 72.9 42.2706 72.152C41.7133 71.404 40.9066 71.03 39.8506 71.03C38.5893 71.03 37.5333 71.5287 36.6826 72.526C35.8466 73.5087 35.2306 74.7113 34.8346 76.134C34.4533 77.542 34.2626 78.8767 34.2626 80.138C34.2626 81.5167 34.534 82.58 35.0766 83.328C35.634 84.076 36.4406 84.45 37.4966 84.45ZM57.66 85.22C56.8533 85.22 56.1566 84.9853 55.57 84.516C54.998 84.032 54.4553 83.2033 53.942 82.03L52.402 78.356H51.522L50.356 85H47.474C48.2953 80.336 48.86 77.102 49.168 75.298C49.476 73.494 49.63 72.5113 49.63 72.35C49.63 71.9393 49.5346 71.6387 49.344 71.448C49.1533 71.2427 48.8306 71.14 48.376 71.14H48.156L48.266 70.48H54.338C55.7166 70.48 56.9413 70.7073 58.012 71.162C59.0826 71.6167 59.618 72.482 59.618 73.758C59.618 74.9167 59.222 75.8627 58.43 76.596C57.638 77.3293 56.6113 77.8573 55.35 78.18L56.978 82.03C57.5793 83.4673 58.3493 84.274 59.288 84.45L59.2 85C59.0826 85.0587 58.8626 85.11 58.54 85.154C58.232 85.198 57.9386 85.22 57.66 85.22ZM52.996 77.476C53.6706 77.476 54.2793 77.3073 54.822 76.97C55.3646 76.6327 55.79 76.1707 56.098 75.584C56.406 74.9973 56.56 74.352 56.56 73.648C56.56 72.8707 56.3253 72.2987 55.856 71.932C55.4013 71.5507 54.844 71.36 54.184 71.36C53.7586 71.36 53.4286 71.3893 53.194 71.448L52.732 71.514L51.676 77.476H52.996ZM67.5206 85.44C66.2006 85.44 65.0346 85.1687 64.0226 84.626C63.0106 84.0687 62.2259 83.2987 61.6686 82.316C61.1259 81.3333 60.8546 80.226 60.8546 78.994C60.8546 77.498 61.2359 76.0607 61.9986 74.682C62.7613 73.3033 63.8099 72.1887 65.1446 71.338C66.4793 70.4727 67.9533 70.04 69.5666 70.04C70.8719 70.04 72.0746 70.26 73.1746 70.7C74.2893 71.14 74.8466 71.9247 74.8466 73.054C74.8466 73.538 74.7733 74.1467 74.6266 74.88H73.9666C73.9226 73.5453 73.5779 72.57 72.9326 71.954C72.3019 71.338 71.3413 71.03 70.0506 71.03C68.6573 71.03 67.4913 71.492 66.5526 72.416C65.6139 73.3253 64.9246 74.4767 64.4846 75.87C64.0446 77.2487 63.8246 78.6347 63.8246 80.028C63.8246 83.0493 65.1079 84.56 67.6746 84.56C68.8479 84.56 69.8746 84.3693 70.7546 83.988L71.4366 80.072C71.5833 79.2947 71.9939 78.6567 72.6686 78.158C73.3433 77.6447 74.5166 77.388 76.1886 77.388L76.0786 77.938C75.1399 77.938 74.5459 78.6347 74.2966 80.028L73.6146 83.966C72.6906 84.4793 71.7299 84.8533 70.7326 85.088C69.7353 85.3227 68.6646 85.44 67.5206 85.44ZM78.8149 85C78.2282 85 77.8102 84.89 77.5609 84.67C77.3115 84.4353 77.1869 84.0393 77.1869 83.482C77.1869 83.1153 77.2309 82.668 77.3189 82.14L79.3869 70.48H82.2469L80.1789 82.14C80.1202 82.448 80.0909 82.7633 80.0909 83.086C80.0909 83.4967 80.1862 83.812 80.3769 84.032C80.5675 84.2373 80.8902 84.34 81.3449 84.34H81.5649L81.4549 85H78.8149ZM95.681 85.088C94.7716 85.088 93.965 84.89 93.261 84.494C92.5716 84.098 92.1023 83.3427 91.853 82.228L91.567 80.996H85.715L83.207 85H82.063L91.105 70.48H92.095L94.955 82.228C95.307 83.592 95.9376 84.3253 96.847 84.428L96.759 84.978C96.495 85.0513 96.1356 85.088 95.681 85.088ZM86.353 80.006H91.325L89.917 74.264L86.353 80.006Z" fill="white"/>
</svg>
